<?xml version="1.0" standalone="no"?>
<!DOCTYPE svg PUBLIC "-//W3C//DTD SVG 20010904//EN"
 "http://www.w3.org/TR/2001/REC-SVG-20010904/DTD/svg10.dtd">
<svg version="1.0" xmlns="http://www.w3.org/2000/svg"
 width="109.000000pt" height="113.000000pt" viewBox="0 0 109.000000 113.000000"
 preserveAspectRatio="xMidYMid meet">

<g transform="translate(0.000000,113.000000) scale(0.100000,-0.100000)"
fill="#000000" stroke="none">
<path d="M0 565 l0 -565 545 0 545 0 -1 253 c-1 138 -4 239 -9 222 -4 -16 -21
-52 -38 -80 -17 -27 -41 -68 -53 -90 -112 -206 -366 -306 -587 -231 -39 13
-84 33 -100 45 -17 11 -34 21 -40 21 -18 0 -110 107 -136 158 -56 110 -73 274
-41 397 36 137 135 258 262 318 l68 32 166 0 165 0 75 -37 c128 -63 232 -196
258 -329 6 -30 9 35 10 204 l1 247 -545 0 -545 0 0 -565z"/>
<path d="M446 960 c-128 -41 -237 -150 -276 -277 -101 -328 205 -634 532 -533
122 38 233 144 275 263 24 70 24 214 0 284 -74 211 -317 332 -531 263z m196
-51 c150 -32 256 -140 288 -293 22 -108 -17 -231 -101 -315 -142 -142 -366
-142 -508 0 -200 200 -104 536 174 605 65 16 83 16 147 3z"/>
<path d="M510 860 c-25 -25 -25 -32 -2 -53 42 -39 142 -23 142 22 0 49 -100
71 -140 31z"/>
<path d="M412 802 c-57 -9 -155 -158 -132 -202 17 -32 38 -24 64 27 25 50 34
47 46 -13 9 -44 9 -67 -2 -111 -7 -30 -17 -55 -22 -56 -5 -1 -14 13 -21 32
-14 44 -37 60 -60 41 -31 -25 6 -119 72 -181 56 -54 118 -81 193 -87 80 -5
133 8 197 51 82 55 155 189 121 223 -22 22 -46 7 -58 -37 -11 -38 -23 -49 -35
-29 -23 38 -27 210 -4 210 5 0 20 -18 34 -40 28 -44 36 -48 60 -24 20 20 13
44 -32 111 -62 92 -127 115 -195 68 -44 -30 -91 -32 -133 -7 -36 22 -62 29
-93 24z m71 -94 c45 -33 129 -32 175 1 19 13 37 20 42 15 4 -5 3 -38 -3 -74
-8 -54 -6 -81 8 -145 33 -151 34 -142 -20 -166 -25 -11 -71 -23 -100 -26 -46
-5 -63 -1 -111 22 -47 23 -55 31 -51 49 37 155 39 172 28 236 -6 36 -14 75
-17 88 -4 14 -2 22 6 22 6 0 26 -10 43 -22z"/>
</g>
</svg>
